<?xml version="1.0" encoding="UTF-8"?>
<!DOCTYPE svg PUBLIC "-//W3C//DTD SVG 1.1//EN" "http://www.w3.org/Graphics/SVG/1.1/DTD/svg11.dtd">
<!-- Creator: CorelDRAW 2021 (64-Bit) -->
<svg xmlns="http://www.w3.org/2000/svg" xml:space="preserve" width="2.032mm" height="2.5241mm" version="1.1" style="shape-rendering:geometricPrecision; text-rendering:geometricPrecision; image-rendering:optimizeQuality; fill-rule:evenodd; clip-rule:evenodd"
viewBox="0 0 25.64 31.84"
 xmlns:xlink="http://www.w3.org/1999/xlink"
 xmlns:xodm="http://www.corel.com/coreldraw/odm/2003">
 <defs>
  <style type="text/css">
   <![CDATA[
    .fil0 {fill:white}
   ]]>
  </style>
 </defs>
 <g id="Capa_x0020_1">
  <metadata id="CorelCorpID_0Corel-Layer"/>
  <path class="fil0" d="M1.6 28l0 -26.4 22.43 0 0 20.83 -15.7 0c-2,0 -4.9,4.58 -6.73,5.57zm9.61 -8.77l3.2 0 0 -3.2 -3.2 0 0 3.2zm0 -4.81l3.2 0 0 -9.61 -3.2 0 0 9.61zm-11.22 17.42c1.62,-0.87 3.02,-2.74 4.37,-4.09 0.77,-0.77 1.32,-1.3 2.08,-2.08 0.76,-0.78 1.15,-1.64 2.52,-1.64l16.66 0 0 -24.03 -25.64 0 0 31.84z"/>
 </g>
</svg>
