<?xml version="1.0" encoding="UTF-8"?>
<!DOCTYPE svg PUBLIC "-//W3C//DTD SVG 1.1//EN" "http://www.w3.org/Graphics/SVG/1.1/DTD/svg11.dtd">
<!-- Creator: CorelDRAW 2021 (64-Bit) -->
<svg xmlns="http://www.w3.org/2000/svg" xml:space="preserve" width="2.032mm" height="1.6003mm" version="1.1" style="shape-rendering:geometricPrecision; text-rendering:geometricPrecision; image-rendering:optimizeQuality; fill-rule:evenodd; clip-rule:evenodd"
viewBox="0 0 50.55 39.81"
 xmlns:xlink="http://www.w3.org/1999/xlink"
 xmlns:xodm="http://www.corel.com/coreldraw/odm/2003">
 <defs>
  <style type="text/css">
   <![CDATA[
    .fil0 {fill:white}
   ]]>
  </style>
 </defs>
 <g id="Capa_x0020_1">
  <metadata id="CorelCorpID_0Corel-Layer"/>
  <path class="fil0" d="M2.52 23.44l0 -14.14c0,-1.73 0.84,-1.59 2.24,-2.32 1.1,-0.57 1.76,-0.97 2.89,-1.63 1.96,-1.13 4.08,-2.94 6.01,-2.19 2.29,0.89 10.16,6.28 11.56,6.25 1.83,-0.03 9.06,-5.37 11.56,-6.29 1.8,-0.66 11.09,4.35 11.09,6.18 0,17.77 1.4,14.48 -5.04,18.06 -21.19,11.78 -14.16,11.81 -29.34,3.29l-8.74 -4.88c-1.58,-0.87 -2.22,-0.66 -2.22,-2.32zm37.7 -13.01c-1.07,0.59 -1.26,-0.2 -2.03,1.79 -1.14,2.95 1.99,6.29 5.2,4.63 3.96,-2.04 1.22,-8.85 -3.17,-6.42zm-7.58 7.58c-1.07,0.59 -1.26,-0.21 -2.02,1.79 -1.14,2.95 1.99,6.28 5.2,4.63 3.96,-2.04 1.22,-8.86 -3.17,-6.42zm-22.54 -3.16l-5.05 0 0 5.05 5.05 0 0 5.05 5.05 0 0 -5.05 5.05 0 0 -5.05 -5.05 0 0 -5.05 -5.05 0 0 5.05zm-10.1 10.1c0,1.67 1.21,1.72 2.6,2.45l9.7 5.46c1.73,1 12.1,6.95 12.92,6.94 0.88,-0.01 11.19,-5.98 12.94,-6.99 2.89,-1.66 12.24,-6.13 12.24,-7.86 0,-21.76 1.61,-17.03 -5.72,-21.44 -0.77,-0.46 -5.83,-3.37 -6.51,-3.49 -2.12,-0.36 -10.73,6.47 -12.92,6.45 -1.86,-0.01 -11.24,-6.75 -12.94,-6.48l-9.7 5.31c-1.33,0.74 -2.6,0.87 -2.6,2.46l0 17.18z"/>
 </g>
</svg>
