<?xml version="1.0" encoding="UTF-8"?>
<!DOCTYPE svg PUBLIC "-//W3C//DTD SVG 1.1//EN" "http://www.w3.org/Graphics/SVG/1.1/DTD/svg11.dtd">
<!-- Creator: CorelDRAW 2021 (64-Bit) -->
<svg xmlns="http://www.w3.org/2000/svg" xml:space="preserve" width="2.032mm" height="2.0333mm" version="1.1" style="shape-rendering:geometricPrecision; text-rendering:geometricPrecision; image-rendering:optimizeQuality; fill-rule:evenodd; clip-rule:evenodd"
viewBox="0 0 106.39 106.45"
 xmlns:xlink="http://www.w3.org/1999/xlink"
 xmlns:xodm="http://www.corel.com/coreldraw/odm/2003">
 <defs>
  <style type="text/css">
   <![CDATA[
    .fil0 {fill:white}
   ]]>
  </style>
 </defs>
 <g id="Capa_x0020_1">
  <metadata id="CorelCorpID_0Corel-Layer"/>
  <path class="fil0" d="M46.11 6.14c28.7,-3.62 50.32,15.31 54.17,39.51 4.45,28.03 -15.58,50.95 -39.31,54.66 -28.24,4.42 -51.42,-15.41 -54.91,-39.4 -4.13,-28.37 15.48,-51.68 40.06,-54.78zm3.47 69.17c-3.23,6.56 -1.04,10.81 7.18,9.04 3.23,-6.54 1.03,-10.92 -7.18,-9.04zm-7.05 -32.73c4.98,-2.69 2.1,-8.14 9.61,-8.68 5.34,-0.38 8.97,3.04 9.37,7.81 0.76,9.23 -11.16,7.5 -12.99,22.2l8.91 -0.39c7.54,-14.14 8.07,-8.31 11.98,-15.42 10.96,-19.95 -30.53,-38.3 -34.33,-5.53l7.45 0zm3.99 -42.03c-27.36,4.05 -50.16,27.77 -46.03,59.64 3.44,26.54 28.03,50.06 59.81,45.75 26.41,-3.58 49.79,-28.09 45.6,-59.68 -3.5,-26.42 -28.9,-50.22 -59.39,-45.71z"/>
 </g>
</svg>
