<?xml version="1.0" encoding="UTF-8"?>
<!DOCTYPE svg PUBLIC "-//W3C//DTD SVG 1.1//EN" "http://www.w3.org/Graphics/SVG/1.1/DTD/svg11.dtd">
<!-- Creator: CorelDRAW 2021 (64-Bit) -->
<svg xmlns="http://www.w3.org/2000/svg" xml:space="preserve" width="2.032mm" height="2.025mm" version="1.1" style="shape-rendering:geometricPrecision; text-rendering:geometricPrecision; image-rendering:optimizeQuality; fill-rule:evenodd; clip-rule:evenodd"
viewBox="0 0 30.5 30.39"
 xmlns:xlink="http://www.w3.org/1999/xlink"
 xmlns:xodm="http://www.corel.com/coreldraw/odm/2003">
 <defs>
  <style type="text/css">
   <![CDATA[
    .fil0 {fill:white}
   ]]>
  </style>
 </defs>
 <g id="Capa_x0020_1">
  <metadata id="CorelCorpID_0Corel-Layer"/>
  <path class="fil0" d="M3.08 9.11c0.94,-2.55 4.07,-5.31 6.66,-6.44 9.99,-4.4 21.99,4.46 18.61,16.47 -3.56,12.63 -22.08,12.86 -25.98,0.45 -0.36,-1.15 -0.44,-1.46 -0.57,-2.76 -0.2,-1.93 0.22,-1.59 -1.41,-1.63 -0.22,0.37 -0.11,-0.01 -0.21,0.68 -0.2,1.3 0.59,3.98 1.1,5.12 6.1,13.47 24.96,12.17 28.71,-2.03 2.28,-8.64 -3.44,-15.82 -9.33,-17.97 -6.78,-2.48 -13.32,-0.17 -17.65,5.28 -0.57,0.71 -0.78,1.36 -1.48,2.01l-0.01 -6.69 -1.52 -0.07 0 9.12 9.2 0 0 -1.52 -6.12 0zm9.16 9.01l7.45 4.52 1.63 -2.58 -6.04 -3.61 -0.01 -8.86 -3.04 0 0 10.53z"/>
 </g>
</svg>
