<?xml version="1.0" encoding="UTF-8"?>
<!DOCTYPE svg PUBLIC "-//W3C//DTD SVG 1.1//EN" "http://www.w3.org/Graphics/SVG/1.1/DTD/svg11.dtd">
<!-- Creator: CorelDRAW 2021 (64-Bit) -->
<svg xmlns="http://www.w3.org/2000/svg" xml:space="preserve" width="2.032mm" height="2.5419mm" version="1.1" style="shape-rendering:geometricPrecision; text-rendering:geometricPrecision; image-rendering:optimizeQuality; fill-rule:evenodd; clip-rule:evenodd"
viewBox="0 0 25.73 32.19"
 xmlns:xlink="http://www.w3.org/1999/xlink"
 xmlns:xodm="http://www.corel.com/coreldraw/odm/2003">
 <defs>
  <style type="text/css">
   <![CDATA[
    .fil0 {fill:white}
   ]]>
  </style>
 </defs>
 <g id="Capa_x0020_1">
  <metadata id="CorelCorpID_0Corel-Layer"/>
  <path class="fil0" d="M17.71 23.52l0 2.26 -9.68 0c0,-3.99 0.14,-1.85 -2.65,-4.45 -7.87,-7.36 -2.57,-19.68 7.48,-19.72 9.43,-0.04 15.64,11.55 7.61,19.51 -0.88,0.87 -2.3,1.56 -2.77,2.4zm1.69 0.4c2.15,-1.48 4.03,-3.06 5.23,-5.74 1.26,-2.8 1.45,-6.07 0.5,-9.21 -1.45,-4.81 -6.34,-9.13 -12.6,-8.97 -11.54,0.29 -16.59,14.32 -8.78,21.96 2.61,2.55 2.65,0.36 2.65,5.42l12.9 -0 0.09 -3.47z"/>
  <path class="fil0" d="M12.87 32.19c3.37,-0.01 -0.55,-1.57 6.45,-1.57l0 -1.61 -12.91 0 0 1.61c7.17,0 2.88,1.58 6.46,1.57z"/>
 </g>
</svg>
