<?xml version="1.0" encoding="UTF-8"?>
<!DOCTYPE svg PUBLIC "-//W3C//DTD SVG 1.1//EN" "http://www.w3.org/Graphics/SVG/1.1/DTD/svg11.dtd">
<!-- Creator: CorelDRAW 2021 (64-Bit) -->
<svg xmlns="http://www.w3.org/2000/svg" xml:space="preserve" width="2.032mm" height="1.9288mm" version="1.1" style="shape-rendering:geometricPrecision; text-rendering:geometricPrecision; image-rendering:optimizeQuality; fill-rule:evenodd; clip-rule:evenodd"
viewBox="0 0 16.12 15.31"
 xmlns:xlink="http://www.w3.org/1999/xlink"
 xmlns:xodm="http://www.corel.com/coreldraw/odm/2003">
 <defs>
  <style type="text/css">
   <![CDATA[
    .fil0 {fill:white}
   ]]>
  </style>
 </defs>
 <g id="Capa_x0020_1">
  <metadata id="CorelCorpID_0Corel-Layer"/>
  <path class="fil0" d="M0.9 7.15l2.69 0 0 7.18 -2.69 0 0 -7.18zm3.59 7.18c0,-2.27 -0.11,-4.78 -0.01,-7.01 0.04,-1.01 0.74,-1.47 1.28,-2.12 0.53,-0.64 1.16,-1.13 1.67,-1.74 0.32,-0.38 3.78,-4.52 3.34,-1.56 -0.16,1.07 -1.22,4 -1.62,5.26 6.88,0 6.51,-0.84 5.37,4.28 -0.87,3.91 0.15,2.9 -10.03,2.9zm5.9 -8.08c0.2,-1.03 1.44,-4.26 1.36,-4.97 -0.1,-0.87 -0.81,-1.41 -1.83,-1.26 -0.98,0.15 -2.79,2.35 -3.38,3.07 -0.49,0.59 -1.09,1.05 -1.59,1.64 -1.67,1.95 -0.69,1.52 -4.94,1.52l0 8.97c2.57,0 5.15,0 7.72,0 1.94,0 6.07,0.46 6.9,-0.82 0.31,-0.48 1.48,-5.42 1.5,-6.2 0.08,-2.6 -3.38,-1.96 -5.73,-1.96z"/>
 </g>
</svg>
