<?xml version="1.0" encoding="UTF-8"?>
<!DOCTYPE svg PUBLIC "-//W3C//DTD SVG 1.1//EN" "http://www.w3.org/Graphics/SVG/1.1/DTD/svg11.dtd">
<!-- Creator: CorelDRAW 2021 (64-Bit) -->
<svg xmlns="http://www.w3.org/2000/svg" xml:space="preserve" width="2.032mm" height="1.4282mm" version="1.1" style="shape-rendering:geometricPrecision; text-rendering:geometricPrecision; image-rendering:optimizeQuality; fill-rule:evenodd; clip-rule:evenodd"
viewBox="0 0 27.78 19.53"
 xmlns:xlink="http://www.w3.org/1999/xlink"
 xmlns:xodm="http://www.corel.com/coreldraw/odm/2003">
 <defs>
  <style type="text/css">
   <![CDATA[
    .fil0 {fill:white}
   ]]>
  </style>
 </defs>
 <g id="Capa_x0020_1">
  <metadata id="CorelCorpID_0Corel-Layer"/>
  <path class="fil0" d="M4.97 18.66c-1.21,-2.19 -3.51,-3.55 -3.55,-8.91 -0.03,-3.77 1.6,-6.82 3.55,-8.61l-1.01 -1.07c-0.65,0.57 -1.08,1.13 -1.64,1.98 -1.52,2.34 -2.37,5.03 -2.32,7.98 0.06,3.65 2.18,8.26 4.19,9.46l0.78 -0.82zm13.96 -3.93l0.84 0.78c2.88,-2.96 3.4,-8.34 -0.01,-11.54l-0.79 0.76c2.92,3.27 2.27,7.34 -0.04,10zm-10.06 0.03c-1.48,-1.79 -3.37,-5.07 -0.64,-9.04l0.81 -0.9 -0.97 -0.82c-2.94,2.62 -3.58,7.56 -0.39,11.14 0.28,0.31 0.27,0.28 0.39,0.41l0.8 -0.79zm2.39 -4.46c0.55,3.19 5.92,2.64 5.34,-1.01 -0.55,-3.47 -5.97,-2.66 -5.34,1.01zm15.42 4.93c2.65,-5.77 0.12,-12.35 -3.02,-15.23l-0.78 0.82c1.07,1.05 1.68,2.11 2.5,3.87 3.49,7.46 -2.13,13.14 -2.47,13.96l1.12 0.87c0.91,-1.17 1.75,-2.32 2.65,-4.3z"/>
 </g>
</svg>
