<?xml version="1.0" encoding="UTF-8"?>
<!DOCTYPE svg PUBLIC "-//W3C//DTD SVG 1.1//EN" "http://www.w3.org/Graphics/SVG/1.1/DTD/svg11.dtd">
<!-- Creator: CorelDRAW 2021 (64-Bit) -->
<svg xmlns="http://www.w3.org/2000/svg" xml:space="preserve" width="2.032mm" height="1.902mm" version="1.1" style="shape-rendering:geometricPrecision; text-rendering:geometricPrecision; image-rendering:optimizeQuality; fill-rule:evenodd; clip-rule:evenodd"
viewBox="0 0 29.43 27.55"
 xmlns:xlink="http://www.w3.org/1999/xlink"
 xmlns:xodm="http://www.corel.com/coreldraw/odm/2003">
 <defs>
  <style type="text/css">
   <![CDATA[
    .fil0 {fill:white}
   ]]>
  </style>
 </defs>
 <g id="Capa_x0020_1">
  <metadata id="CorelCorpID_0Corel-Layer"/>
  <path class="fil0" d="M9.18 10.24l2.93 -0.06 1.39 4.33 4.29 -0.01 -1.38 -4.27 2.93 -0.06 1.39 4.33 4.29 -0.01 -1.38 -4.27 4.34 -0.05 0 15.91 -26.03 0 0 -15.91 2.93 0 1.39 4.32 4.29 -0.01 -1.38 -4.27zm-5.93 -1.53c1.68,-0.77 22.41,-3.83 26.16,-4.43l-0.7 -4.29 -28.72 4.77c0.95,7.27 0.51,15.23 0.51,22.78l28.92 0 0 -18.8 -26.18 -0.04z"/>
 </g>
</svg>
