<?xml version="1.0" encoding="UTF-8"?>
<!DOCTYPE svg PUBLIC "-//W3C//DTD SVG 1.1//EN" "http://www.w3.org/Graphics/SVG/1.1/DTD/svg11.dtd">
<!-- Creator: CorelDRAW 2021 (64-Bit) -->
<svg xmlns="http://www.w3.org/2000/svg" xml:space="preserve" width="2.032mm" height="2.0292mm" version="1.1" style="shape-rendering:geometricPrecision; text-rendering:geometricPrecision; image-rendering:optimizeQuality; fill-rule:evenodd; clip-rule:evenodd"
viewBox="0 0 18.32 18.29"
 xmlns:xlink="http://www.w3.org/1999/xlink"
 xmlns:xodm="http://www.corel.com/coreldraw/odm/2003">
 <defs>
  <style type="text/css">
   <![CDATA[
    .fil0 {fill:white}
   ]]>
  </style>
 </defs>
 <g id="Capa_x0020_1">
  <metadata id="CorelCorpID_0Corel-Layer"/>
  <path class="fil0" d="M1.02 0.99l16.28 0 0 12.21 -4.07 0 0 4.07 -12.21 0 0 -16.28zm9.16 11.19l5.09 0 0 -2.04 -5.09 0 0 2.04zm0 -3.05l5.09 0 0 -2.03 -5.09 0 0 2.03zm-7.12 -4.07l12.21 0 0 -2.04 -12.21 0 0 2.04zm1.02 3.05l4.07 0 0 6.11 -4.07 0 0 -6.11zm-1.02 7.12l6.1 0 0 -8.14 -6.1 0 0 8.14zm10.79 3.05c0.74,0 4.48,-3.74 4.48,-4.48l0 -13.81 -18.3 0 -0.02 18.29 13.84 0z"/>
 </g>
</svg>
