<?xml version="1.0" encoding="UTF-8"?>
<!DOCTYPE svg PUBLIC "-//W3C//DTD SVG 1.1//EN" "http://www.w3.org/Graphics/SVG/1.1/DTD/svg11.dtd">
<!-- Creator: CorelDRAW 2021 (64-Bit) -->
<svg xmlns="http://www.w3.org/2000/svg" xml:space="preserve" width="2.032mm" height="2.0367mm" version="1.1" style="shape-rendering:geometricPrecision; text-rendering:geometricPrecision; image-rendering:optimizeQuality; fill-rule:evenodd; clip-rule:evenodd"
viewBox="0 0 261.03 261.64"
 xmlns:xlink="http://www.w3.org/1999/xlink"
 xmlns:xodm="http://www.corel.com/coreldraw/odm/2003">
 <defs>
  <style type="text/css">
   <![CDATA[
    .fil0 {fill:white}
   ]]>
  </style>
 </defs>
 <g id="Capa_x0020_1">
  <metadata id="CorelCorpID_0Corel-Layer"/>
  <path class="fil0" d="M38.27 222.01l7.4 -7.51c-2.66,-6.1 -11.39,-15.22 -16.96,-24.61 -45.18,-76.22 8.12,-176.17 101.18,-176.79 89.33,-0.58 146.77,95.92 102.33,175.23 -5.76,10.26 -15.02,19.51 -17.57,26.15l9.79 8.79c11.45,-19.72 25.9,-29.12 33.35,-64.41 32.05,-151.93 -181.66,-224.83 -247.03,-81.86 -26.08,57.01 0.08,129.84 27.52,145.01zm36.69 -37.01l7.54 -7.19c-9.26,-17.46 -27.35,-36.37 -12.38,-72.91 8.49,-20.77 28.6,-38.58 57.28,-39.42 70.87,-2.08 83.69,85.68 49.42,109.05l8.04 10.29c21.31,-14.5 30.42,-56.3 16.56,-86.39 -38.87,-84.36 -166.81,-42.21 -148.14,48.82 3.7,18.07 11.82,28.66 21.68,37.77zm41.92 76.64l26.21 0c0,-31.7 -1.23,-65.77 -0.19,-97.16 0.8,-23.68 14.64,-13.96 12.76,-36.06 -2.54,-29.83 -45.71,-31.28 -50.95,-2.3 -4.02,22.17 10.98,15.6 12.35,35.76 2,29.79 -0.17,68.89 -0.17,99.75z"/>
 </g>
</svg>
