<?xml version="1.0" encoding="UTF-8"?>
<!DOCTYPE svg PUBLIC "-//W3C//DTD SVG 1.1//EN" "http://www.w3.org/Graphics/SVG/1.1/DTD/svg11.dtd">
<!-- Creator: CorelDRAW 2021 (64-Bit) -->
<svg xmlns="http://www.w3.org/2000/svg" xml:space="preserve" width="2.032mm" height="2.1139mm" version="1.1" style="shape-rendering:geometricPrecision; text-rendering:geometricPrecision; image-rendering:optimizeQuality; fill-rule:evenodd; clip-rule:evenodd"
viewBox="0 0 17.91 18.63"
 xmlns:xlink="http://www.w3.org/1999/xlink"
 xmlns:xodm="http://www.corel.com/coreldraw/odm/2003">
 <defs>
  <style type="text/css">
   <![CDATA[
    .fil0 {fill:white}
   ]]>
  </style>
 </defs>
 <g id="Capa_x0020_1">
  <metadata id="CorelCorpID_0Corel-Layer"/>
  <path class="fil0" d="M2.24 4.26c0.95,0.01 1.15,0.29 2.01,0.45 0.87,0.17 0.87,-0.27 1.64,-0.69 0.78,-0.43 1.15,-0.26 1.43,-0.99 0.13,-0.34 0.39,-1.7 0.44,-2.1l2.35 0 0.59 2.46c0.44,0.25 0.71,0.29 1.2,0.55 2.39,1.28 0.23,0.89 3.75,0.2l1.16 1.99c-2.46,2.28 -1.75,1.44 -1.77,3.19 -0.02,1.35 -0.41,1.1 0.43,1.85 0.49,0.44 0.93,0.75 1.26,1.26 -0.25,0.7 -0.58,1.28 -1.07,1.93 -0.77,-0.02 -1.31,-0.34 -1.99,-0.47 -0.91,-0.17 -0.85,0.26 -1.66,0.7 -1.43,0.77 -1.2,-0.08 -1.91,3.1l-2.31 0c-0.68,-3.25 -0.55,-2.36 -1.91,-3.08 -2.09,-1.11 -0.19,-0.91 -3.61,-0.13 -0.39,-0.62 -0.83,-1.3 -1.09,-2 2.32,-2.76 1.69,-0.61 1.7,-3.17 0.01,-1.29 0.39,-1.14 -0.39,-1.9 -0.44,-0.43 -0.98,-0.83 -1.31,-1.24 0.24,-0.69 0.57,-1.24 1.07,-1.91zm4.48 5.8c-0.42,-1.35 0.51,-2.7 1.52,-2.96 1.48,-0.39 2.65,0.53 2.92,1.52 0.88,3.15 -3.6,4.13 -4.44,1.45zm1.18 -3.75c-1.92,0.76 -2.63,2.42 -1.98,4.17 1.47,3.93 7.61,1.76 6.06,-2.33 -0.5,-1.33 -2.16,-2.6 -4.08,-1.84zm9.97 6.17c-0.69,-1.29 -1.95,-1.13 -1.93,-3.17 0.01,-1.2 0.1,-1.17 0.74,-1.78 0.46,-0.43 0.76,-0.76 1.24,-1.13 -0.38,-1.05 -1.26,-2.51 -1.89,-3.31 -2.72,0.58 -1.98,1.11 -3.73,0.08 -0.9,-0.53 -1.11,-0.64 -1.44,-3.17l-3.77 0c-0.68,3.23 -0.48,2.61 -1.62,3.22 -1.88,1 -1.52,0.19 -3.6,-0.1l-1.85 3.03 1.93 2.05 -0.05 2.23 -1.89 1.8c0.29,1.07 1.21,2.49 1.86,3.31 2.07,-0.44 2,-1.08 3.73,-0.07 0.96,0.56 0.95,0.27 1.46,3.17l3.77 0c0.5,-2.86 0.56,-2.66 1.57,-3.24 1.58,-0.9 1.68,-0.24 3.68,0.17l1.78 -3.08z"/>
 </g>
</svg>
