<?xml version="1.0" encoding="UTF-8"?>
<!DOCTYPE svg PUBLIC "-//W3C//DTD SVG 1.1//EN" "http://www.w3.org/Graphics/SVG/1.1/DTD/svg11.dtd">
<!-- Creator: CorelDRAW 2021 (64-Bit) -->
<svg xmlns="http://www.w3.org/2000/svg" xml:space="preserve" width="2.032mm" height="2.5183mm" version="1.1" style="shape-rendering:geometricPrecision; text-rendering:geometricPrecision; image-rendering:optimizeQuality; fill-rule:evenodd; clip-rule:evenodd"
viewBox="0 0 16.24 20.13"
 xmlns:xlink="http://www.w3.org/1999/xlink"
 xmlns:xodm="http://www.corel.com/coreldraw/odm/2003">
 <defs>
  <style type="text/css">
   <![CDATA[
    .fil0 {fill:white}
   ]]>
  </style>
 </defs>
 <g id="Capa_x0020_1">
  <metadata id="CorelCorpID_0Corel-Layer"/>
  <path class="fil0" d="M4.55 12.78c0,-2.36 -0.61,-0.82 -2.5,-2.34 -0.87,-0.7 -1.44,-2.27 -0.61,-3.6 0.75,-1.21 4.85,-2.96 6.31,-3.78 1.84,-1.03 5.2,-3.4 6.87,-0.97 0.88,1.29 0.56,2.76 -0.36,3.64 -0.95,0.91 -3.08,1.1 -2.64,2.5 0.22,0.71 2.14,0.73 2.99,1.94 2.52,3.58 -3.64,5.43 -6.3,6.95 -1.81,1.03 -5.03,3.18 -6.67,0.98 -2.42,-3.24 2.36,-4.95 2.92,-5.33zm1.51 -0.13c0.78,-0.33 4.45,-2.21 4.86,-2.6l-4.82 -2.63 -0.04 5.22zm6.85 -4.82c0.11,-0.1 5.54,-2.86 2.28,-6.52 -2.36,-2.65 -4.84,-0.7 -7.4,0.59 -3.92,1.97 -9.27,3.82 -7.43,7.98 0.57,1.3 1.81,1.55 2.9,2.39 -1.2,1.02 -2.15,0.84 -2.92,2.57 -1.27,2.86 1.34,6.06 4.5,5.12 1.19,-0.35 2.38,-1.22 3.49,-1.76 3.87,-1.88 9.27,-3.85 7.43,-7.97 -0.62,-1.38 -1.76,-1.55 -2.86,-2.38z"/>
 </g>
</svg>
