<?xml version="1.0" encoding="UTF-8"?>
<!DOCTYPE svg PUBLIC "-//W3C//DTD SVG 1.1//EN" "http://www.w3.org/Graphics/SVG/1.1/DTD/svg11.dtd">
<!-- Creator: CorelDRAW 2021 (64-Bit) -->
<svg xmlns="http://www.w3.org/2000/svg" xml:space="preserve" width="2.032mm" height="2.2519mm" version="1.1" style="shape-rendering:geometricPrecision; text-rendering:geometricPrecision; image-rendering:optimizeQuality; fill-rule:evenodd; clip-rule:evenodd"
viewBox="0 0 224.89 249.23"
 xmlns:xlink="http://www.w3.org/1999/xlink"
 xmlns:xodm="http://www.corel.com/coreldraw/odm/2003">
 <defs>
  <style type="text/css">
   <![CDATA[
    .fil0 {fill:white}
   ]]>
  </style>
 </defs>
 <g id="Capa_x0020_1">
  <metadata id="CorelCorpID_0Corel-Layer"/>
  <path class="fil0" d="M74.77 219c8.15,-3.15 30.8,-17.18 37.4,-17.22 7.51,-0.04 29.13,13.8 37.38,16.91l0 18.07 -74.77 0 0 -17.76zm-24.92 -206.55l124.61 0 0 94.72c0,88.93 -124.61,90.05 -124.61,0l0 -94.72zm137.07 37.39l24.92 0 -0.07 55.01 -24.86 11.03 0 -66.04zm-174.46 0l24.92 0 -0.31 66.69 -24.61 -11.55 0 -55.14zm-12.46 57.33c0,9.13 20.32,14.92 28.53,18.87 25.34,12.17 9.6,27.61 45.17,49.62 14.39,8.9 26.25,8.21 34.4,13.45 -9.81,4.07 -16.51,8.17 -25.9,12.67 -23.7,11.36 -19.89,3.14 -19.89,47.45l99.69 0c0,-45.53 3.75,-36.51 -21.5,-48.3 -8.77,-4.09 -15.13,-8.27 -24.59,-11.2 2.55,-1.94 1.69,-1.44 5.87,-3.21 0.77,-0.32 3.19,-1.13 4,-1.39 9.7,-3.12 12.44,-2.06 24.82,-9.51 36.72,-22.12 17.77,-35.91 45.63,-49.25 35.17,-16.84 28.09,0.69 28.09,-88.98l-37.39 0 0 -37.39 -149.53 0 0 37.39 -37.39 0 0 69.79z"/>
 </g>
</svg>
