<?xml version="1.0" encoding="UTF-8"?>
<!DOCTYPE svg PUBLIC "-//W3C//DTD SVG 1.1//EN" "http://www.w3.org/Graphics/SVG/1.1/DTD/svg11.dtd">
<!-- Creator: CorelDRAW 2021 (64-Bit) -->
<svg xmlns="http://www.w3.org/2000/svg" xml:space="preserve" width="2.032mm" height="2.535mm" version="1.1" style="shape-rendering:geometricPrecision; text-rendering:geometricPrecision; image-rendering:optimizeQuality; fill-rule:evenodd; clip-rule:evenodd"
viewBox="0 0 20.25 25.27"
 xmlns:xlink="http://www.w3.org/1999/xlink"
 xmlns:xodm="http://www.corel.com/coreldraw/odm/2003">
 <defs>
  <style type="text/css">
   <![CDATA[
    .fil0 {fill:white}
   ]]>
  </style>
 </defs>
 <g id="Capa_x0020_1">
  <metadata id="CorelCorpID_0Corel-Layer"/>
  <path class="fil0" d="M11.42 7.28c2.37,-1.19 5.27,-3.92 7.57,-4.85 0,4.52 0.67,13.09 -1.02,16.54 -5,10.2 -19.94,3.59 -16.2,-7.58 1.38,-4.14 6.17,-7 9.61,-8.01l0.04 3.9zm1.24 9.66l-0.05 -6.78c-1.52,0.92 -3.06,1.99 -4.59,2.9 -1.66,1 -3.2,2.08 -2.91,4.85 0.5,4.8 7.54,4.98 7.54,-0.97zm-0.06 -15.65c-4.12,2.25 -8.24,3.62 -10.45,6.67 -2.64,3.64 -2.98,9.03 -0.22,12.87 5.98,8.31 18.33,4.3 18.33,-6.67l-0.08 -14.16 -7.49 4.97 -0.09 -3.68z"/>
 </g>
</svg>
