<?xml version="1.0" encoding="UTF-8"?>
<!DOCTYPE svg PUBLIC "-//W3C//DTD SVG 1.1//EN" "http://www.w3.org/Graphics/SVG/1.1/DTD/svg11.dtd">
<!-- Creator: CorelDRAW 2021 (64-Bit) -->
<svg xmlns="http://www.w3.org/2000/svg" xml:space="preserve" width="2.032mm" height="2.0313mm" version="1.1" style="shape-rendering:geometricPrecision; text-rendering:geometricPrecision; image-rendering:optimizeQuality; fill-rule:evenodd; clip-rule:evenodd"
viewBox="0 0 255.48 255.39"
 xmlns:xlink="http://www.w3.org/1999/xlink"
 xmlns:xodm="http://www.corel.com/coreldraw/odm/2003">
 <defs>
  <style type="text/css">
   <![CDATA[
    .fil0 {fill:white}
   ]]>
  </style>
 </defs>
 <g id="Capa_x0020_1">
  <metadata id="CorelCorpID_0Corel-Layer"/>
  <path class="fil0" d="M102.25 143.03l62.59 47.26 13.72 -21.73 -50.76 -35.76 0 -68.96 -25.55 0 0 79.18zm8.61 -128.34c155.15,-19.58 177.66,203.8 35.66,226.03 -67.79,10.61 -123.43,-36.99 -131.79,-94.55 -9.91,-68.09 37.14,-124.04 96.13,-131.49zm-109.82 128.34c8.16,64.13 65.39,120.08 141.66,111.48 64.11,-7.23 120.37,-66.47 111.93,-141.34 -7.29,-64.76 -67.4,-120.84 -141.37,-112.31 -65.21,7.52 -121.68,67.93 -112.22,142.17z"/>
 </g>
</svg>
