<?xml version="1.0" encoding="UTF-8"?>
<!DOCTYPE svg PUBLIC "-//W3C//DTD SVG 1.1//EN" "http://www.w3.org/Graphics/SVG/1.1/DTD/svg11.dtd">
<!-- Creator: CorelDRAW 2021 (64-Bit) -->
<svg xmlns="http://www.w3.org/2000/svg" xml:space="preserve" width="2.032mm" height="2.032mm" version="1.1" style="shape-rendering:geometricPrecision; text-rendering:geometricPrecision; image-rendering:optimizeQuality; fill-rule:evenodd; clip-rule:evenodd"
viewBox="0 0 31.81 31.81"
 xmlns:xlink="http://www.w3.org/1999/xlink"
 xmlns:xodm="http://www.corel.com/coreldraw/odm/2003">
 <defs>
  <style type="text/css">
   <![CDATA[
    .fil0 {fill:white}
   ]]>
  </style>
 </defs>
 <g id="Capa_x0020_1">
  <metadata id="CorelCorpID_0Corel-Layer"/>
  <path class="fil0" d="M8.88 24.7c0.89,-4.72 4.58,-7.26 9.86,-7.17 5.41,0.09 8.47,2.55 9.45,7.15l-1.33 0.07 -16.61 0.01 -1.37 -0.05zm-8.88 7.11l26.51 0 0 -1.77 -24.74 0 0 -24.74 -1.77 0 0 26.51zm17.58 -26.33c5.84,-1.29 7.23,7.37 2.06,8.51 -5.85,1.29 -7.75,-7.25 -2.06,-8.51zm-10.51 -3.71l22.97 0c0.01,5.03 0.25,18.06 -0.13,22.22 -1.81,-5.37 -3.93,-6.92 -9.72,-8.22 2.22,-1.25 4.97,-2.6 4.47,-6.87 -0.84,-7.09 -11.69,-7.12 -12.23,0.34 -0.3,4.06 2.14,5.15 4.54,6.58 -7.41,1.17 -7.77,4.15 -9.86,8.04l-0.04 -1.59 0 -20.5zm-1.77 24.74l26.51 0 0 -26.51 -26.51 0 0 26.51z"/>
 </g>
</svg>
