<?xml version="1.0" encoding="UTF-8"?>
<!DOCTYPE svg PUBLIC "-//W3C//DTD SVG 1.1//EN" "http://www.w3.org/Graphics/SVG/1.1/DTD/svg11.dtd">
<!-- Creator: CorelDRAW 2021 (64-Bit) -->
<svg xmlns="http://www.w3.org/2000/svg" xml:space="preserve" width="2.032mm" height="2.0309mm" version="1.1" style="shape-rendering:geometricPrecision; text-rendering:geometricPrecision; image-rendering:optimizeQuality; fill-rule:evenodd; clip-rule:evenodd"
viewBox="0 0 20.49 20.48"
 xmlns:xlink="http://www.w3.org/1999/xlink"
 xmlns:xodm="http://www.corel.com/coreldraw/odm/2003">
 <defs>
  <style type="text/css">
   <![CDATA[
    .fil0 {fill:white}
   ]]>
  </style>
 </defs>
 <g id="Capa_x0020_1">
  <metadata id="CorelCorpID_0Corel-Layer"/>
  <path class="fil0" d="M9.17 1.12c5.46,-0.72 9.63,3.33 10.21,7.95 0.67,5.37 -3.21,9.74 -8,10.32 -11.98,1.44 -14.5,-16.65 -2.22,-18.27zm-0.97 11.76c0.8,-0.33 4.52,-2.25 4.94,-2.64l-4.9 -2.67 -0.04 5.31zm-3.03 -2.02c-0.77,-6.83 9.47,-7.79 10.15,-1.19 0.31,2.98 -1.83,5.38 -4.5,5.64 -3.04,0.31 -5.35,-1.75 -5.65,-4.45zm3.92 -6.58c-8.1,1.65 -5.44,13.66 2.46,11.96 7.82,-1.68 5.37,-13.54 -2.46,-11.96zm-9.04 6.99c0.48,5.25 5.27,9.72 11.21,9.16 5.17,-0.48 9.75,-5.14 9.19,-11.18 -0.49,-5.24 -5.24,-9.78 -11.2,-9.2 -5.35,0.52 -9.73,5.28 -9.19,11.21z"/>
 </g>
</svg>
