<?xml version="1.0" encoding="UTF-8"?>
<!DOCTYPE svg PUBLIC "-//W3C//DTD SVG 1.1//EN" "http://www.w3.org/Graphics/SVG/1.1/DTD/svg11.dtd">
<!-- Creator: CorelDRAW 2021 (64-Bit) -->
<svg xmlns="http://www.w3.org/2000/svg" xml:space="preserve" width="2.032mm" height="2.2613mm" version="1.1" style="shape-rendering:geometricPrecision; text-rendering:geometricPrecision; image-rendering:optimizeQuality; fill-rule:evenodd; clip-rule:evenodd"
viewBox="0 0 16.63 18.5"
 xmlns:xlink="http://www.w3.org/1999/xlink"
 xmlns:xodm="http://www.corel.com/coreldraw/odm/2003">
 <defs>
  <style type="text/css">
   <![CDATA[
    .fil0 {fill:#FE0000}
    .fil1 {fill:white}
   ]]>
  </style>
 </defs>
 <g id="Capa_x0020_1">
  <metadata id="CorelCorpID_0Corel-Layer"/>
  <g id="_3050518896432">
   <path class="fil0" d="M3.03 7.39c0,-1.64 1.22,-1.9 2.27,-2.51 3.45,-2.01 2.61,-1.97 6.16,0.05 1.16,0.66 2.15,0.85 2.15,2.46 0,5.85 0.39,4.8 -2.29,6.39 -0.54,0.32 -2.42,1.51 -3,1.51 -0.57,0 -2.56,-1.26 -3.11,-1.57 -2.64,-1.51 -2.18,-1.06 -2.18,-6.33zm-2.94 5.93c0.17,1.13 1.39,1.56 2.29,2.05 6.29,3.47 4.79,4.02 8.67,1.86 0.99,-0.55 5.05,-2.73 5.37,-3.44 0.24,-0.52 0.27,-7.65 0.14,-8.56 -0.17,-1.15 -1.39,-1.56 -2.3,-2.09 -6.33,-3.68 -5.03,-3.88 -8.65,-1.86 -1.04,0.58 -5.02,2.69 -5.38,3.44 -0.26,0.55 -0.28,7.68 -0.15,8.6z"/>
   <path class="fil0" d="M6.52 6.56c0.51,0.18 4.27,2.34 4.61,2.69 -0.35,0.34 -4.1,2.51 -4.61,2.68l0 -5.37zm6.52 5.44c0.46,-6.64 0.06,-5.39 -2.98,-7.21 -1.93,-1.16 -1.54,-1.16 -3.49,-0 -0.57,0.34 -2.76,1.4 -2.95,1.96 -0.12,0.36 -0.13,4.61 -0.02,5.01 0.15,0.59 0.79,0.78 1.41,1.13 3.66,2.08 2.8,2.17 5.01,0.93 0.77,-0.43 2.48,-1.36 3.02,-1.82z"/>
   <path class="fil1" d="M13.04 12c-0.54,0.46 -2.25,1.39 -3.02,1.82 -2.22,1.24 -1.35,1.14 -5.01,-0.93 -0.61,-0.35 -1.25,-0.54 -1.41,-1.13 -0.11,-0.4 -0.09,-4.66 0.02,-5.01 0.18,-0.56 2.38,-1.62 2.95,-1.96 1.95,-1.16 1.55,-1.16 3.49,0 3.04,1.82 3.44,0.57 2.98,7.21zm-10.01 -4.62c0,5.27 -0.46,4.82 2.18,6.33 0.55,0.32 2.54,1.57 3.11,1.57 0.58,-0 2.46,-1.19 3,-1.51 2.69,-1.59 2.29,-0.54 2.29,-6.39 0,-1.61 -1,-1.8 -2.15,-2.46 -3.55,-2.02 -2.71,-2.06 -6.16,-0.05 -1.05,0.61 -2.27,0.88 -2.27,2.51z"/>
   <path class="fil1" d="M6.52 11.93c0.51,-0.18 4.27,-2.34 4.61,-2.68 -0.35,-0.35 -4.1,-2.51 -4.61,-2.69l0 5.37z"/>
  </g>
 </g>
</svg>
