<?xml version="1.0" encoding="UTF-8"?>
<!DOCTYPE svg PUBLIC "-//W3C//DTD SVG 1.1//EN" "http://www.w3.org/Graphics/SVG/1.1/DTD/svg11.dtd">
<!-- Creator: CorelDRAW 2021 (64-Bit) -->
<svg xmlns="http://www.w3.org/2000/svg" xml:space="preserve" width="2.032mm" height="1.6224mm" version="1.1" style="shape-rendering:geometricPrecision; text-rendering:geometricPrecision; image-rendering:optimizeQuality; fill-rule:evenodd; clip-rule:evenodd"
viewBox="0 0 21.35 17.04"
 xmlns:xlink="http://www.w3.org/1999/xlink"
 xmlns:xodm="http://www.corel.com/coreldraw/odm/2003">
 <defs>
  <style type="text/css">
   <![CDATA[
    .fil1 {fill:black}
    .fil0 {fill:#FE0000}
    .fil2 {fill:white}
   ]]>
  </style>
 </defs>
 <g id="Capa_x0020_1">
  <metadata id="CorelCorpID_0Corel-Layer"/>
  <g id="_3050487448944">
   <path class="fil0" d="M8.81 11.78c-0.5,-0.58 -1.21,-4.81 -1.03,-5.91 0.25,-1.57 2.65,-0.29 4.73,0.53 3.09,1.21 2.65,1.64 0.61,3.03 -1.55,1.06 -3.23,2.55 -4.31,2.36zm11.49 -1.61c0,-1.8 -0.47,-6.04 -1.15,-7.42 -1.19,-2.4 -3.63,-1.79 -6.45,-1.43 -5.46,0.7 -11.82,0.55 -11.66,5.41 0.05,1.55 0.71,6.11 1.16,7.4 0.95,2.7 3.79,1.78 6.11,1.2 7.03,-1.77 11.99,0.83 11.99,-5.16z"/>
   <path class="fil1" d="M20.3 10.17c0,5.99 -4.96,3.39 -11.99,5.16 -2.32,0.59 -5.16,1.51 -6.11,-1.2 -0.45,-1.28 -1.11,-5.84 -1.16,-7.4 -0.15,-4.85 6.2,-4.71 11.66,-5.41 2.82,-0.36 5.26,-0.97 6.45,1.43 0.68,1.38 1.15,5.61 1.15,7.42zm-20.21 -2.14c0.3,2.26 0.54,6.08 1.81,7.69 1.8,2.29 4.82,1.04 7.47,0.43 6.15,-1.43 12.57,1.34 11.94,-7.25 -0.68,-9.36 -2.32,-9.46 -9.76,-8.5 -5.88,0.76 -12.38,0.62 -11.45,7.63z"/>
   <path class="fil1" d="M8.85 6.27l4.52 1.6c-1.34,0.98 -2.61,1.98 -4.03,2.76l-0.49 -4.36zm-0.04 5.51c1.08,0.19 2.76,-1.3 4.31,-2.36 2.04,-1.39 2.48,-1.82 -0.61,-3.03 -2.08,-0.82 -4.48,-2.09 -4.73,-0.53 -0.18,1.1 0.53,5.33 1.03,5.91z"/>
   <path class="fil2" d="M9.35 10.63c1.42,-0.78 2.69,-1.79 4.03,-2.76l-4.52 -1.6 0.49 4.36z"/>
  </g>
 </g>
</svg>
