<?xml version="1.0" encoding="UTF-8"?>
<!DOCTYPE svg PUBLIC "-//W3C//DTD SVG 1.1//EN" "http://www.w3.org/Graphics/SVG/1.1/DTD/svg11.dtd">
<!-- Creator: CorelDRAW 2021 (64-Bit) -->
<svg xmlns="http://www.w3.org/2000/svg" xml:space="preserve" width="2.032mm" height="2.0312mm" version="1.1" style="shape-rendering:geometricPrecision; text-rendering:geometricPrecision; image-rendering:optimizeQuality; fill-rule:evenodd; clip-rule:evenodd"
viewBox="0 0 29.09 29.08"
 xmlns:xlink="http://www.w3.org/1999/xlink"
 xmlns:xodm="http://www.corel.com/coreldraw/odm/2003">
 <defs>
  <style type="text/css">
   <![CDATA[
    .fil0 {fill:#FE0000}
    .fil1 {fill:white}
   ]]>
  </style>
 </defs>
 <g id="Capa_x0020_1">
  <metadata id="CorelCorpID_0Corel-Layer"/>
  <g id="_3050492722528">
   <path class="fil0" d="M12.91 6.08c4.97,-1.19 9.28,2.69 10.13,6.62 1.12,5.2 -2.57,9.46 -6.65,10.33 -10.8,2.31 -15.32,-14.1 -3.47,-16.95zm-12.7 10.78c1.2,7.09 7.85,13.4 16.54,12.03 7.16,-1.13 13.52,-7.84 12.14,-16.56 -1.13,-7.16 -7.84,-13.52 -16.56,-12.14 -7.16,1.13 -13.61,7.92 -12.13,16.67z"/>
   <path class="fil0" d="M11.7 10.71l6.99 3.94 -7.04 3.66 0.05 -7.6zm1.22 -3.18c-9.11,2.22 -6.3,16.34 3.45,14.03 3.46,-0.82 6.26,-4.58 5.19,-8.81 -0.87,-3.47 -4.42,-6.25 -8.65,-5.21z"/>
   <path class="fil1" d="M12.92 7.53c4.23,-1.03 7.78,1.74 8.65,5.21 1.06,4.23 -1.74,7.99 -5.19,8.81 -9.75,2.31 -12.56,-11.81 -3.45,-14.03zm-0 -1.45c-11.85,2.85 -7.33,19.26 3.47,16.95 4.09,-0.87 7.77,-5.14 6.65,-10.33 -0.85,-3.93 -5.16,-7.81 -10.13,-6.62z"/>
   <polygon class="fil1" points="11.65,18.31 18.69,14.64 11.7,10.71 "/>
  </g>
 </g>
</svg>
